# xmcd
#
# Track frame offsets:
#	150
#	11312
#	20709
#	32408
#	42420
#	55682
#	70165
#	82148
#	93490
#	104415
#	115332
#	127779
#	136798
#	149418
#	161377
#	173715
#	184446
#	196752
#	212075
#	221584
#
# Disc length: 3092 seconds
#
# Revision: 1
# Processed by: cddbd v1.5.2PL0 Copyright (c) Steve Scherf et al.
# Submitted via: audiograbber 1.83.01
#
DISCID=150c1214
DTITLE=Hank Thompson - A Six Pack To Go
DYEAR=1975
DGENRE=Country
TTITLE0=A Six Pack To Go
TTITLE1=Slipping Around
TTITLE2=O-k-l-a-h-o-m-a
TTITLE3=Take Me Back To Tulsa
TTITLE4=Smoke, Smoke, Smoke That Cigarette
TTITLE5=Cold, Cold Heart
TTITLE6=Walking The Floor Over You
TTITLE7=Where Is The Circus (here Comes The Clown)
TTITLE8=I've Got A Date With A Teardrop
TTITLE9=No.1 On The Hurt Parade
TTITLE10=Together Again
TTITLE11=The Big One Got Away
TTITLE12=Let The Four Winds Choose
TTITLE13=Sixteen Tons
TTITLE14=Six Days On The Road
TTITLE15=Promise Her Anything
TTITLE16=She Thinks I Still Care
TTITLE17=Guthrie
TTITLE18=Take It All Away
TTITLE19=Homesick, Lonesome Hillbilly Okie
EXTD=
EXTT0=
EXTT1=
EXTT2=
EXTT3=
EXTT4=
EXTT5=
EXTT6=
EXTT7=
EXTT8=
EXTT9=
EXTT10=
EXTT11=
EXTT12=
EXTT13=
EXTT14=
EXTT15=
EXTT16=
EXTT17=
EXTT18=
EXTT19=
PLAYORDER=
